<svg width="20" height="20" viewBox="0 0 20 20" fill="none" xmlns="http://www.w3.org/2000/svg">
<path d="M5.4168 11.25C6.28038 11.0243 7.92268 9.93055 8.33347 9.58334V6.66667L5.83347 5.83334C5.6623 5.15817 5.13118 3.7963 4.58347 3.33334L3.98004 5.21413C2.89601 5.69638 1.12495 7.87038 2.08346 10.4167C2.50013 11.25 3.36551 14.1667 4.58347 16.25" stroke="white" stroke-width="1.44841" stroke-linecap="round" stroke-linejoin="round"/>
<path d="M10 5.50223C11.8297 5.19952 15.6353 5.53248 16.2208 9.28594C16.3428 9.84094 16.1476 12.5036 14.3911 13.7144C14.0373 13.9583 13.75 14.9999 13.75 16.2499" stroke="white" stroke-width="1.44841" stroke-linecap="round" stroke-linejoin="round"/>
<path d="M10.8334 16.6666C10.8334 15.7462 10.0872 15 9.16671 15C8.24625 15 7.50005 15.7462 7.50005 16.6666" stroke="white" stroke-width="1.44841" stroke-linecap="round"/>
<path d="M16.25 9.99999C16.4584 10.4167 17.3744 10.6956 18.0116 10.0424C18.3825 9.66207 18.6862 8.47244 17.7492 7.91665" stroke="white" stroke-width="1.44841" stroke-linecap="round" stroke-linejoin="round"/>
</svg>
