<svg width="20" height="20" viewBox="0 0 20 20" fill="none" xmlns="http://www.w3.org/2000/svg">
<path d="M15.4166 15.9417C16.6666 14.8083 16.6666 12.65 16.6666 11.6667C16.6666 10.7826 16.3154 9.93476 15.6903 9.30964C15.0652 8.68452 14.2174 8.33333 13.3333 8.33333C12.75 8.33333 12.1666 8.49999 11.6666 8.79999V4.99999C11.6666 4.33695 11.4032 3.70107 10.9344 3.23223C10.4656 2.76338 9.82968 2.49999 9.16664 2.49999C8.54164 2.49999 7.9583 2.74166 7.49997 3.14999C7.04187 2.73952 6.4484 2.51253 5.8333 2.51253C5.2182 2.51253 4.62474 2.73952 4.16664 3.14999C3.7083 2.73333 3.11664 2.49999 2.49997 2.49999V4.16666C2.72098 4.16666 2.93294 4.25446 3.08923 4.41074C3.24551 4.56702 3.3333 4.77898 3.3333 4.99999V13.3333H4.99997V4.99999C4.99997 4.77898 5.08777 4.56702 5.24405 4.41074C5.40033 4.25446 5.61229 4.16666 5.8333 4.16666C6.05432 4.16666 6.26628 4.25446 6.42256 4.41074C6.57884 4.56702 6.66664 4.77898 6.66664 4.99999V13.3333H8.3333V4.99999C8.3333 4.77898 8.4211 4.56702 8.57738 4.41074C8.73366 4.25446 8.94562 4.16666 9.16664 4.16666C9.38765 4.16666 9.59961 4.25446 9.75589 4.41074C9.91217 4.56702 9.99997 4.77898 9.99997 4.99999V11.6667C9.99997 12.65 9.99997 14.8083 11.25 15.9417C10.6 16.2833 9.89997 16.5333 9.16664 16.6667V18.3333C10.2416 18.3333 12.3666 17.2833 13.3333 16.775C14.3 17.2833 16.425 18.3333 17.5 18.3333V16.6667C16.7666 16.5333 16.0666 16.2833 15.4166 15.9417ZM13.3333 9.99999C13.7753 9.99999 14.1993 10.1756 14.5118 10.4881C14.8244 10.8007 15 11.2246 15 11.6667C15 14.1 14.55 15 13.3333 15C12.1166 15 11.6666 14.1 11.6666 11.6667C11.6666 11.2246 11.8422 10.8007 12.1548 10.4881C12.4674 10.1756 12.8913 9.99999 13.3333 9.99999Z" fill="white"/>
</svg>
